<svg id="visual" viewBox="0 0 540 960" width="540" height="960" xmlns="http://www.w3.org/2000/svg" xmlns:xlink="http://www.w3.org/1999/xlink" version="1.1"><path d="M0 513L8.2 510.8C16.3 508.7 32.7 504.3 49 523.7C65.3 543 81.7 586 98 597C114.3 608 130.7 587 147 584.5C163.3 582 179.7 598 196 597.5C212.3 597 228.7 580 245.2 560.3C261.7 540.7 278.3 518.3 294.8 528C311.3 537.7 327.7 579.3 344 587.2C360.3 595 376.7 569 393 571.2C409.3 573.3 425.7 603.7 442 614.8C458.3 626 474.7 618 491 618C507.3 618 523.7 626 531.8 630L540 634L540 961L531.8 961C523.7 961 507.3 961 491 961C474.7 961 458.3 961 442 961C425.7 961 409.3 961 393 961C376.7 961 360.3 961 344 961C327.7 961 311.3 961 294.8 961C278.3 961 261.7 961 245.2 961C228.7 961 212.3 961 196 961C179.7 961 163.3 961 147 961C130.7 961 114.3 961 98 961C81.7 961 65.3 961 49 961C32.7 961 16.3 961 8.2 961L0 961Z" fill="#dbdbdb"></path><path d="M0 617L8.2 625.5C16.3 634 32.7 651 49 657.5C65.3 664 81.7 660 98 644C114.3 628 130.7 600 147 597.2C163.3 594.3 179.7 616.7 196 636.5C212.3 656.3 228.7 673.7 245.2 681.7C261.7 689.7 278.3 688.3 294.8 667.2C311.3 646 327.7 605 344 595C360.3 585 376.7 606 393 620.7C409.3 635.3 425.7 643.7 442 637.7C458.3 631.7 474.7 611.3 491 597.8C507.3 584.3 523.7 577.7 531.8 574.3L540 571L540 961L531.8 961C523.7 961 507.3 961 491 961C474.7 961 458.3 961 442 961C425.7 961 409.3 961 393 961C376.7 961 360.3 961 344 961C327.7 961 311.3 961 294.8 961C278.3 961 261.7 961 245.2 961C228.7 961 212.3 961 196 961C179.7 961 163.3 961 147 961C130.7 961 114.3 961 98 961C81.7 961 65.3 961 49 961C32.7 961 16.3 961 8.2 961L0 961Z" fill="#e9c7b5"></path><path d="M0 691L8.2 685.8C16.3 680.7 32.7 670.3 49 674.5C65.3 678.7 81.7 697.3 98 702.2C114.3 707 130.7 698 147 701.8C163.3 705.7 179.7 722.3 196 715.8C212.3 709.3 228.7 679.7 245.2 672.7C261.7 665.7 278.3 681.3 294.8 689.7C311.3 698 327.7 699 344 691.2C360.3 683.3 376.7 666.7 393 657.8C409.3 649 425.7 648 442 648.7C458.3 649.3 474.7 651.7 491 666C507.3 680.3 523.7 706.7 531.8 719.8L540 733L540 961L531.8 961C523.7 961 507.3 961 491 961C474.7 961 458.3 961 442 961C425.7 961 409.3 961 393 961C376.7 961 360.3 961 344 961C327.7 961 311.3 961 294.8 961C278.3 961 261.7 961 245.2 961C228.7 961 212.3 961 196 961C179.7 961 163.3 961 147 961C130.7 961 114.3 961 98 961C81.7 961 65.3 961 49 961C32.7 961 16.3 961 8.2 961L0 961Z" fill="#f1b48f"></path><path d="M0 711L8.2 717.8C16.3 724.7 32.7 738.3 49 751.3C65.3 764.3 81.7 776.7 98 772.3C114.3 768 130.7 747 147 742.7C163.3 738.3 179.7 750.7 196 760.5C212.3 770.3 228.7 777.7 245.2 768.7C261.7 759.7 278.3 734.3 294.8 720.8C311.3 707.3 327.7 705.7 344 720.3C360.3 735 376.7 766 393 777.3C409.3 788.7 425.7 780.3 442 780C458.3 779.7 474.7 787.3 491 779.2C507.3 771 523.7 747 531.8 735L540 723L540 961L531.8 961C523.7 961 507.3 961 491 961C474.7 961 458.3 961 442 961C425.7 961 409.3 961 393 961C376.7 961 360.3 961 344 961C327.7 961 311.3 961 294.8 961C278.3 961 261.7 961 245.2 961C228.7 961 212.3 961 196 961C179.7 961 163.3 961 147 961C130.7 961 114.3 961 98 961C81.7 961 65.3 961 49 961C32.7 961 16.3 961 8.2 961L0 961Z" fill="#f6a069"></path><path d="M0 851L8.2 844.7C16.3 838.3 32.7 825.7 49 825.7C65.3 825.7 81.7 838.3 98 838.2C114.3 838 130.7 825 147 822.8C163.3 820.7 179.7 829.3 196 824.2C212.3 819 228.7 800 245.2 792.8C261.7 785.7 278.3 790.3 294.8 795C311.3 799.7 327.7 804.3 344 806C360.3 807.7 376.7 806.3 393 810.5C409.3 814.7 425.7 824.3 442 825.8C458.3 827.3 474.7 820.7 491 813.7C507.3 806.7 523.7 799.3 531.8 795.7L540 792L540 961L531.8 961C523.7 961 507.3 961 491 961C474.7 961 458.3 961 442 961C425.7 961 409.3 961 393 961C376.7 961 360.3 961 344 961C327.7 961 311.3 961 294.8 961C278.3 961 261.7 961 245.2 961C228.7 961 212.3 961 196 961C179.7 961 163.3 961 147 961C130.7 961 114.3 961 98 961C81.7 961 65.3 961 49 961C32.7 961 16.3 961 8.2 961L0 961Z" fill="#f88c42"></path><path d="M0 868L8.2 867.2C16.3 866.3 32.7 864.7 49 865.2C65.3 865.7 81.7 868.3 98 869.8C114.3 871.3 130.7 871.7 147 868.2C163.3 864.7 179.7 857.3 196 861.5C212.3 865.7 228.7 881.3 245.2 882.7C261.7 884 278.3 871 294.8 869.5C311.3 868 327.7 878 344 878.7C360.3 879.3 376.7 870.7 393 869.3C409.3 868 425.7 874 442 873.7C458.3 873.3 474.7 866.7 491 864.3C507.3 862 523.7 864 531.8 865L540 866L540 961L531.8 961C523.7 961 507.3 961 491 961C474.7 961 458.3 961 442 961C425.7 961 409.3 961 393 961C376.7 961 360.3 961 344 961C327.7 961 311.3 961 294.8 961C278.3 961 261.7 961 245.2 961C228.7 961 212.3 961 196 961C179.7 961 163.3 961 147 961C130.7 961 114.3 961 98 961C81.7 961 65.3 961 49 961C32.7 961 16.3 961 8.2 961L0 961Z" fill="#f7770f"></path></svg>